<svg width="45" height="42" viewBox="0 0 45 42" fill="none" xmlns="http://www.w3.org/2000/svg">
<path d="M0.300003 40.1133C0.299934 40.6656 0.747594 41.1134 1.29988 41.1135C1.85216 41.1135 2.29993 40.6659 2.3 40.1136L0.300003 40.1133ZM1.3009 32.9271L2.3009 32.9272L1.3009 32.9271ZM23.825 26.7423C24.3773 26.7423 24.825 26.2946 24.825 25.7423C24.825 25.19 24.3773 24.7423 23.825 24.7423V26.7423ZM43.7 29.1375C44.2523 29.1375 44.7 28.6898 44.7 28.1375C44.7 27.5852 44.2523 27.1375 43.7 27.1375V29.1375ZM31.775 27.1375C31.2227 27.1375 30.775 27.5852 30.775 28.1375C30.775 28.6898 31.2227 29.1375 31.775 29.1375V27.1375ZM36.7375 33.5264C36.7375 34.0787 37.1852 34.5264 37.7375 34.5264C38.2898 34.5264 38.7375 34.0787 38.7375 33.5264H36.7375ZM38.7375 22.748C38.7375 22.1958 38.2898 21.748 37.7375 21.748C37.1852 21.748 36.7375 22.1958 36.7375 22.748H38.7375ZM26.8 8.97597C26.8 12.2995 23.7859 15.1615 19.85 15.1615V17.1615C24.6954 17.1615 28.8 13.5894 28.8 8.97597H26.8ZM19.85 15.1615C15.9141 15.1615 12.9 12.2995 12.9 8.97597H10.9C10.9 13.5894 15.0046 17.1615 19.85 17.1615V15.1615ZM12.9 8.97597C12.9 5.65248 15.9141 2.79039 19.85 2.79039V0.79039C15.0046 0.79039 10.9 4.36249 10.9 8.97597H12.9ZM19.85 2.79039C23.7859 2.79039 26.8 5.65248 26.8 8.97597H28.8C28.8 4.36248 24.6954 0.79039 19.85 0.79039V2.79039ZM2.3 40.1136L2.3009 32.9272L0.300897 32.927L0.300003 40.1133L2.3 40.1136ZM9.2509 24.7423C4.40584 24.7423 0.301471 28.3139 0.300897 32.927L2.3009 32.9272C2.30131 29.604 5.31532 26.7423 9.2509 26.7423V24.7423ZM9.2509 26.7423H23.825V24.7423H9.2509V26.7423ZM43.7 27.1375H37.7375V29.1375H43.7V27.1375ZM37.7375 27.1375H31.775V29.1375H37.7375V27.1375ZM38.7375 33.5264V28.1375H36.7375V33.5264H38.7375ZM38.7375 28.1375V22.748H36.7375V28.1375H38.7375Z" fill="black"/>
</svg>
