<svg width="39" height="36" viewBox="0 0 39 36" fill="none" xmlns="http://www.w3.org/2000/svg">
<path d="M0 18C0 8.05888 8.05888 0 18 0H21C30.9411 0 39 8.05888 39 18C39 27.9411 30.9411 36 21 36H18C8.05887 36 0 27.9411 0 18Z" fill="#64BAC7"/>
<path d="M32.5 31.5V28.5C32.5 26.9087 31.8152 25.3826 30.5962 24.2574C29.3772 23.1321 27.7239 22.5 26 22.5H13C11.2761 22.5 9.62279 23.1321 8.40381 24.2574C7.18482 25.3826 6.5 26.9087 6.5 28.5V31.5M26 10.5C26 13.8137 23.0899 16.5 19.5 16.5C15.9101 16.5 13 13.8137 13 10.5C13 7.18629 15.9101 4.5 19.5 4.5C23.0899 4.5 26 7.18629 26 10.5Z" stroke="#1E1E1E" stroke-width="4" stroke-linecap="round" stroke-linejoin="round"/>
</svg>
